# ProBuilder 5.0.7
# https://unity3d.com/unity/features/worldbuilding/probuilder
# 7/29/2023 11:05:41 PM

mtllib ./facility.mtl
o facility

g Plane (1)
v -20.15477 0.02005 59.8515
v -17.22312 0.02005 67.56075
v -21.99156 0.02005 59.8515
v -21.99156 0.02005 67.56075
v -17.22312 0.02005 71.02408
v -21.99156 0.02005 71.02408
v -23.82835 0.02005 59.8515
v -26.76 0.02005 67.56075
v -26.76 0.02005 71.02408
v -25.05038 1.643892 74.27132
v -29.81882 1.643892 74.27132
v -15.01513 1.643892 74.27132
v -19.78358 1.643892 74.27132
v -15.01513 4.98756 82.60378
v -19.78358 4.98756 82.60378
v -25.05038 4.98756 82.60378
v -29.81882 4.98756 82.60378
v -15.01513 5.86041 86.61143
v -21.99179 5.86041 86.61143
v -29.81882 5.86041 86.61143
v -15.01513 5.875505 90.93712
v -21.99179 5.875505 90.93712
v -29.81882 5.875505 90.93712
v -15.01513 5.878581 94.71158
v -21.99179 5.878581 94.71158
v -29.81882 5.878581 94.71158
v -15.01513 5.889691 105.2899
v -21.99179 5.889691 105.2899
v -27.60504 5.889691 107.1281
v -35.09928 5.876658 105.2896
v -35.09928 5.865548 98.31555
v -29.81907 5.885568 109.1406
v -35.09953 5.872535 114.9759
v -41.88863 5.861077 118.4989
v -41.88837 5.8652 110.6036
v -41.88837 5.854089 103.6293
v -45.21473 5.86185 110.6035
v -45.21494 5.850739 103.6289
v -45.2148 5.857727 118.499
v -45.21505 3.491426 103.6285
v -41.88849 3.494777 103.6289
v -45.21502 3.491456 99.77921
v -41.88846 3.494807 99.7796
v -45.21527 3.489048 97.4274
v -41.88871 3.492399 97.4278
v -48.16029 3.490456 99.77895
v -48.16054 3.488048 97.42714
v -45.21511 0.9641247 99.77895
v -48.16037 0.963124 99.77869
v -45.21513 0.964099 103.3962
v -48.1604 0.9630984 103.3959
v -53.74792 5.859607 110.6033
v -53.74813 5.848495 103.6285
v -53.74799 5.855484 118.4991
v -45.21521 0.9638765 106.7022
v -48.16048 0.9628759 106.7019
v -45.2153 -0.897445 117.5524
v -48.16056 -0.8984456 117.5522
v -32.22574 0.9709774 106.7445
v -32.22582 -0.8903442 117.5947
v -65.5999 -0.922792 110.5604
v -61.98368 0.9385296 101.8262
v -71.63837 -0.9193682 101.2702
v -69.15269 0.9419534 94.31879

vt -13.21047 -30.83701
vt -19.07376 -15.41851
vt -9.536882 -30.83701
vt -9.536882 -15.41851
vt -19.07376 -8.491852
vt -9.53688 -8.491852
vt -5.863298 -30.83701
vt 0 -15.41851
vt 0 -8.491852
vt -9.53688 -7.59509
vt 0 -7.59509
vt -3.419243 -0.3338452
vt 6.117638 -0.3338452
vt -19.07376 -7.59509
vt -23.48974 -0.3338452
vt -13.95285 -0.3338452
vt -23.48974 -0.6441678
vt -13.95285 -0.6441678
vt -23.48974 17.31244
vt -13.95285 17.31244
vt -3.419243 -0.6441678
vt 6.117638 -0.6441678
vt -3.419243 17.31244
vt 6.117638 17.31244
vt -23.48974 16.44583
vt -13.95285 16.44583
vt -23.48974 24.64905
vt -9.536419 24.64905
vt -3.419243 16.44583
vt 6.117638 16.44583
vt 6.117638 24.64905
vt -23.48974 22.72348
vt -9.536419 22.72348
vt -23.48974 31.3749
vt -9.536419 31.3749
vt 6.117638 22.72348
vt 6.117638 31.3749
vt -23.48974 31.34376
vt -9.536419 31.34376
vt -23.48974 38.89268
vt -9.536419 38.89268
vt 6.117638 31.34376
vt 6.117638 38.89268
vt -23.48974 38.89544
vt -9.536419 38.89544
vt -23.48974 60.052
vt -9.536419 60.052
vt 6.117638 38.89544
vt 1.690067 63.72853
vt 1.671411 63.7234
vt 6.099011 38.89031
vt 16.65992 60.04635
vt 16.65995 46.09825
vt 1.669342 63.71498
vt 16.65785 60.03793
vt 6.097416 67.74002
vt 16.65837 79.4106
vt 16.66187 79.40685
vt 16.66135 60.03418
vt 30.24008 86.45277
vt 30.23956 70.6622
vt 16.6441 60.05785
vt 16.64417 46.10974
vt 30.22231 70.68588
vt 30.22237 56.73726
vt 30.24496 70.68579
vt 30.24498 56.73716
vt 36.89768 70.68552
vt 36.89811 56.73637
vt 30.24547 86.45165
vt 30.24496 70.66108
vt 36.89782 86.45188
vt 36.89767 70.6608
vt 36.90312 11.67101
vt 30.24999 11.67772
vt 36.90335 6.952391
vt 30.25023 6.959092
vt 36.90309 56.71696
vt 30.24996 56.71775
vt 36.90303 49.01835
vt 30.2499 49.01914
vt 36.90303 49.02552
vt 30.2499 49.02631
vt 36.90354 44.32191
vt 30.25041 44.3227
vt 36.90768 49.0255
vt 36.90819 44.32188
vt 42.79821 49.02498
vt 42.79872 44.32136
vt -36.90573 6.947944
vt -42.79626 6.945942
vt -36.9059 1.893281
vt -42.79643 1.891279
vt 36.90956 49.01787
vt 42.8001 49.01735
vt 36.90961 56.25237
vt 42.80014 56.25185
vt 36.90639 70.68547
vt 36.90681 56.73633
vt 53.97277 70.6852
vt 53.97319 56.73553
vt 36.90653 86.4519
vt 36.90639 70.66082
vt 53.97291 86.45216
vt 53.97277 70.66055
vt 36.90978 62.86423
vt 42.80031 62.86372
vt 36.90975 61.63791
vt 42.80029 61.63739
vt 36.91124 83.65542
vt 42.80177 83.65489
vt 36.90831 61.63323
vt 36.9126 83.65073
vt 10.92937 61.719
vt 10.93365 83.7365
vt 42.82471 83.15644
vt 42.56396 61.14048
vt 77.62122 68.96951
vt 70.14594 51.21056
vt 76.54185 68.31505
vt 68.71992 50.70471
vt 88.38307 49.58355
vt 82.77834 35.45378

vn 0 0.5 0
vn 0 0.4472013 -0.2236314
vn 0 0.4640329 -0.1862082
vn 0 0.4885472 -0.1064033
vn 0 0.499997 -0.001744772
vn 0 0.4999998 -0.0004074224
vn 0 0.4999997 -0.0005251695
vn -0.0007945164 0.4999993 -0.000305761
vn -0.001286125 0.4999977 -0.0005511679
vn -0.001777733 0.4999962 -0.0007965749
vn -0.0005034869 0.4999991 -0.0007965499
vn 5.954568E-05 8.407427E-05 -0.5
vn -4.401922E-05 -5.131737E-05 0.5
vn -0.0001748729 0.4928014 0.08453826
vn -0.0005444759 0.4928012 0.0845382
vn -0.0344988 0.4916271 0.08433654
vn -0.03371412 0.4910946 0.08762293
vn -0.03292944 0.4905621 0.09090931
vn -0.09723932 0.4863405 0.06338323
vn -0.09762497 0.4837909 0.07859766
vn -0.09801061 0.4812413 0.09381209

usemtl Prototype_Scaling_Mantis
f 3/3/1 4/4/1 2/2/1 1/1/1
f 4/4/1 6/6/1 5/5/1 2/2/1
f 7/7/1 8/8/1 4/4/1 3/3/1
f 8/8/1 9/9/1 6/6/1 4/4/1
f 11/13/2 10/12/2 6/10/2 9/11/2
f 13/16/2 12/15/2 5/14/2 6/10/2
f 15/20/3 14/19/3 12/17/3 13/18/3
f 17/24/3 16/23/3 10/21/3 11/22/3
f 19/28/4 18/27/4 14/25/4 15/26/4
f 20/31/4 19/28/4 16/29/4 17/30/4
f 22/35/5 21/34/5 18/32/5 19/33/5
f 23/37/5 22/35/5 19/33/5 20/36/5
f 25/41/6 24/40/6 21/38/6 22/39/6
f 26/43/6 25/41/6 22/39/6 23/42/6
f 28/47/7 27/46/7 24/44/7 25/45/7
f 29/49/6 28/47/6 25/45/7 26/48/6
f 31/53/10 30/52/9 29/50/8 26/51/9
f 33/57/8 32/56/8 29/54/8 30/55/8
f 35/61/8 34/60/8 33/58/8 30/59/8
f 36/65/9 35/64/9 30/62/9 31/63/9
f 38/69/11 37/68/11 35/66/11 36/67/11
f 37/73/8 39/72/8 34/70/8 35/71/8
f 41/77/12 40/76/12 38/74/12 36/75/12
f 43/81/8 42/80/8 40/78/8 41/79/8
f 45/85/11 44/84/11 42/82/11 43/83/11
f 47/89/7 46/88/7 42/86/7 44/87/7
f 49/93/13 48/92/13 42/90/13 46/91/13
f 51/97/6 50/96/6 48/94/6 49/95/6
f 53/101/7 52/100/7 37/98/7 38/99/7
f 52/105/6 54/104/6 39/102/6 37/103/6
f 56/107/6 55/106/6 50/96/6 51/97/6
f 58/111/14 57/110/14 55/108/14 56/109/14
f 60/115/15 59/114/15 55/112/15 57/113/15
f 62/119/18 61/118/17 58/116/16 56/117/17
f 64/123/21 63/122/20 61/120/19 62/121/20

