# ProBuilder 5.0.7
# https://unity3d.com/unity/features/worldbuilding/probuilder
# 6/15/2023 2:29:50 PM

mtllib ./quarryArena.mtl
o quarryArena

g Plane (3)
v 34.42615 -91.9999 -99.99876
v 34.42615 -91.9999 -21.68805
v -31.53404 -91.9999 -99.99876
v -31.53404 -91.9999 -21.68805
v -97.49423 -91.9999 -99.99876
v -97.49423 -91.9999 -21.68805
v 34.42615 -1.413734 -67.60001
v 34.42615 -1.413734 -21.68805
v -97.49423 -1.413734 -21.68805
v -97.49423 -1.413734 -67.60001
v 34.42615 -91.9999 24.22391
v 34.42615 -1.413734 24.22391
v 34.42615 -46.70682 24.22391
v -29.95707 -1.413734 24.22391
v -29.95707 -46.70682 24.22391
v -33.11102 -1.413734 24.22391
v -97.49423 -1.413734 24.22391
v -97.49423 -46.70682 24.22391
v -33.11102 -46.70682 24.22391
v -97.49423 -91.9999 24.22391
v -31.53404 -1.413734 24.22391
v -31.53404 -46.70682 24.22391
v -30.74556 -46.70682 24.22391
v -32.32253 -46.70682 24.22391
v -31.53404 -91.9999 24.22391
v -29.95707 -91.9999 24.22391
v -30.35132 -91.9999 24.22391
v -30.74556 -91.9999 24.22391
v -31.1398 -91.9999 24.22391
v -31.92828 -91.9999 24.22391
v -32.32253 -91.9999 24.22391
v -32.71677 -91.9999 24.22391
v -33.11102 -91.9999 24.22391
v -30.74556 -82.92052 24.22391
v -30.35132 -82.92052 24.22391
v -29.95707 -82.92052 24.22391
v -30.74556 -80.35618 24.22391
v -30.35132 -80.35618 24.22391
v -29.95707 -80.35618 24.22391
v -31.53404 -80.35618 24.22391
v -31.1398 -80.35618 24.22391
v -31.53404 -82.92052 24.22391
v -31.1398 -82.92052 24.22391
v -33.11102 -80.35618 24.22391
v -33.11102 -82.92052 24.22391
v -32.32253 -82.92052 24.22391
v -31.92828 -82.92052 24.22391
v -32.32253 -80.35618 24.22391
v -31.92828 -80.35618 24.22391
v -32.71677 -80.35618 24.22391
v -32.71677 -82.92052 24.22391

vt 0 -32.39875
vt 0 45.91196
vt 65.96019 -32.39875
vt 65.96019 45.91196
vt 131.9204 -32.39875
vt 131.9204 45.91196
vt -32.39875 9.918213E-05
vt 45.91196 0.0001
vt 0 90.58627
vt 45.91196 90.58627
vt -45.91196 0.0001
vt 32.39875 9.918213E-05
vt -45.91196 90.58627
vt 91.82391 0.0001
vt 91.82391 90.58627
vt 91.82391 45.29318
vt 0 45.29318
vt 64.38322 90.58627
vt 64.38322 45.29318
vt 67.53716 90.58627
vt 131.9204 90.58627
vt 131.9204 45.29318
vt 67.53716 45.29318
vt -91.82391 0.0001
vt -91.82391 45.29318
vt -91.82391 90.58627
vt 65.96019 90.58627
vt 65.96019 45.29318
vt 65.17171 45.29318
vt 66.74867 45.29318
vt 65.96019 91.82391
vt -7.770334E-13 91.82391
vt 64.38322 91.82391
vt 64.77747 91.82391
vt 65.17171 91.82391
vt 65.56595 91.82391
vt 131.9204 91.82391
vt 66.35443 91.82391
vt 66.74867 91.82391
vt 67.14291 91.82391
vt 67.53716 91.82391
vt 65.17171 9.079475
vt 65.17171 9.918213E-05
vt 64.77747 9.918213E-05
vt 64.77747 9.079475
vt 64.38322 9.918213E-05
vt 64.38322 9.079475
vt 65.17171 11.64382
vt 64.77747 11.64382
vt 64.38322 11.64382
vt 65.96019 11.64382
vt 65.56595 11.64382
vt 65.96019 9.079475
vt 65.96019 9.918213E-05
vt 65.56595 9.918213E-05
vt 65.56595 9.079475
vt 0 0.0001
vt 67.53716 11.64382
vt 131.9204 0.0001
vt 67.53716 9.918213E-05
vt 67.53716 9.079475
vt 66.74867 9.079475
vt 66.74867 9.918213E-05
vt 66.35443 9.918213E-05
vt 66.35443 9.079475
vt 66.74867 11.64382
vt 66.35443 11.64382
vt 67.14291 11.64382
vt 67.14291 9.918213E-05
vt 67.14291 9.079475

vn 0 1 -1.044389E-08
vn -1 0 0
vn 1 0 0
vn 0 0 -1

usemtl Prototype_Scaling_Black
f 2/8/2 11/14/2 13/16/2
f 8/10/2 2/8/2 13/16/2
f 8/10/2 13/16/2 12/15/2
f 17/26/3 18/25/3 9/13/3
f 18/25/3 6/11/3 9/13/3
f 18/25/3 20/24/3 6/11/3
f 14/18/4 23/29/4 21/27/4
f 14/18/4 15/19/4 23/29/4
f 23/29/4 22/28/4 21/27/4
f 21/27/4 24/30/4 16/20/4
f 21/27/4 22/28/4 24/30/4
f 24/30/4 19/23/4 16/20/4
f 29/36/1 4/4/1 25/31/1
f 29/36/1 28/35/1 4/4/1
f 28/35/1 27/34/1 4/4/1
f 27/34/1 26/33/1 4/4/1
f 4/4/1 26/33/1 2/2/1
f 26/33/1 11/32/1 2/2/1
f 33/41/1 6/6/1 20/37/1
f 6/6/1 33/41/1 4/4/1
f 4/4/1 33/41/1 32/40/1
f 4/4/1 32/40/1 31/39/1
f 4/4/1 31/39/1 30/38/1
f 30/38/1 25/31/1 4/4/1
f 15/19/4 38/49/4 23/29/4
f 15/19/4 39/50/4 38/49/4
f 38/49/4 37/48/4 23/29/4
f 23/29/4 41/52/4 22/28/4
f 23/29/4 37/48/4 41/52/4
f 41/52/4 40/51/4 22/28/4
f 39/50/4 15/19/4 13/17/4
f 11/57/4 39/50/4 13/17/4
f 11/57/4 36/47/4 39/50/4
f 11/57/4 26/46/4 36/47/4
f 19/23/4 44/58/4 18/22/4
f 44/58/4 20/59/4 18/22/4
f 44/58/4 45/61/4 20/59/4
f 45/61/4 33/60/4 20/59/4
f 22/28/4 49/67/4 24/30/4
f 22/28/4 40/51/4 49/67/4
f 49/67/4 48/66/4 24/30/4
f 24/30/4 50/68/4 19/23/4
f 24/30/4 48/66/4 50/68/4
f 50/68/4 44/58/4 19/23/4
f 4/4/1 2/2/1 1/1/1
f 1/1/1 3/3/1 4/4/1
f 6/6/1 4/4/1 3/3/1
f 3/3/1 5/5/1 6/6/1
f 7/9/2 1/7/2 2/8/2
f 2/8/2 8/10/2 7/9/2
f 9/13/3 6/11/3 5/12/3
f 5/12/3 10/9/3 9/13/3
f 15/19/4 14/18/4 12/9/4
f 12/9/4 13/17/4 15/19/4
f 18/22/4 17/21/4 16/20/4
f 16/20/4 19/23/4 18/22/4
f 28/43/4 34/42/4 35/45/4
f 35/45/4 27/44/4 28/43/4
f 27/44/4 35/45/4 36/47/4
f 36/47/4 26/46/4 27/44/4
f 25/54/4 42/53/4 43/56/4
f 43/56/4 29/55/4 25/54/4
f 29/55/4 43/56/4 34/42/4
f 34/42/4 28/43/4 29/55/4
f 31/63/4 46/62/4 47/65/4
f 47/65/4 30/64/4 31/63/4
f 30/64/4 47/65/4 42/53/4
f 42/53/4 25/54/4 30/64/4
f 33/60/4 45/61/4 51/70/4
f 51/70/4 32/69/4 33/60/4
f 32/69/4 51/70/4 46/62/4
f 46/62/4 31/63/4 32/69/4

