# ProBuilder 5.0.7
# https://unity3d.com/unity/features/worldbuilding/probuilder
# 6/4/2023 5:16:34 PM

mtllib ./ForestLand.mtl
o ForestLand

g Plane
v 23.26356 9.61853E-05 -31.06919
v 31.13601 9.61853E-05 -7.991062
v 1.981781 9.61853E-05 -31.06919
v 1.981781 9.61853E-05 -7.991062
v -21.87743 9.62019E-05 -31.19719
v -19.3 9.61853E-05 -7.991062
v 1.981781 9.61853E-05 32.95723
v -1.929853 9.61853E-05 32.95723
v -19.3 9.61853E-05 15.08707
v 23.26356 9.61853E-05 15.08707
v 5.893415 9.61853E-05 32.95723
v 46.8646 0.5000962 -31.21066
v 44.46861 0.5000962 -21.66583
v 37.90101 -1.740431 -50.93817
v 53.32304 -1.240629 -51.07964
v 1.981781 0.5000962 -56.24065
v 28.29547 0.5000576 -50.94402
v -10.87548 0.5000962 -51.06818
v 36.79352 -5.543515 -63.02322
v 55.97853 -5.043738 -63.1642
v 1.981705 9.806809 -54.64839
v 28.2958 9.806769 -56.12575
v 8.760006 10.30665 -67.3994
v 21.55374 10.30661 -67.39735
v -10.87563 9.80681 -56.25581
v -4.097366 10.30665 -67.52744
v -4.097216 0.9999385 -67.54253
v 8.760082 0.999938 -67.41452
v 21.55374 0.9998994 -66.49403
v 25.80185 -1.232734 -72.95789
v 32.54391 -1.732575 -57.40202
v 25.80185 8.073977 -73.86121
v 32.54391 7.574136 -62.5896
v -4.166984 -0.02618599 46.32322
v -5.920181 -0.02618599 44.21632
v -7.67338 -0.02618599 42.10942
v -12.24631 -0.01575941 45.9478
v -12.98745 -0.01575965 44.09174
v -13.7287 -0.01576024 42.23564
v -17.48437 -0.03039572 50.74308
v -18.82776 -0.03039606 49.41006
v -20.17122 -0.03039668 48.07706
v -24.97285 -0.01752502 54.17268
v -25.24323 -0.01752523 50.55369
v -25.51369 -0.01752567 46.9346
v -29.94137 0.03192928 62.14909
v -30.07645 0.031929 57.68071
v -30.21152 0.03192872 53.21232
v -30.34665 0.0319283 48.74397
v -30.48177 0.03192788 44.27561
v -48.44894 0.03977083 57.6806
v -48.58396 0.03976998 53.21222
v -48.31393 0.03977169 62.14897
v -70.48174 0.0476141 62.14885
v -69.00053 0.04761267 57.68049
v -68.47263 0.04761124 53.21212
v -48.71905 0.03976919 48.74388
v -48.85414 0.0397684 39.87057
v -69.27055 0.04761007 48.74379
v -67.2265 0.04760891 44.27546
v -38.99175 0.01738209 119.7967
v -48.31373 0.02522451 119.7966
v -59.81811 0.03306693 119.7965
v -12.87355 14.11479 32.95773
v -25.53656 14.11479 15.08707
v -13.91003 14.08851 35.232
v -19.96521 14.09893 35.35812
v -26.40756 14.0843 39.2571
v -31.74712 14.09716 38.1144
v -36.71569 14.14661 39.26138
v -55.09048 14.15446 39.87059
v -73.46281 14.1623 44.27557
v -75.5069 14.1623 48.7438
v -74.709 14.1623 53.21212
v -76.71807 14.16231 62.14891
v -75.2369 14.1623 57.68052
v -66.05432 14.14776 119.7966
v -25.53656 14.11479 -7.991062
v -28.11403 14.11475 -31.19092
v -17.11008 14.61466 -51.05694

vt -42.56356 -46.15626
vt -50.43601 -23.07813
vt -21.28178 -46.15626
vt -21.28178 -23.07813
vt 2.577435 -46.28425
vt 6.690645E-14 -23.07813
vt -21.28178 17.87016
vt -17.37015 17.87016
vt 0 0
vt -42.56356 0
vt -25.19341 17.87016
vt -42.55405 -46.14857
vt -50.42474 -23.06984
vt -66.16039 -46.29004
vt -63.76493 -36.74583
vt -42.55345 -46.006
vt -66.15977 -46.14822
vt -57.14947 -65.9814
vt -72.57874 -66.10527
vt -21.28178 -46.14716
vt -42.56356 -46.14716
vt -21.28178 -71.32358
vt -47.59547 -66.02799
vt 2.577435 -46.2697
vt -21.28178 -46.14167
vt -8.424584 -66.14694
vt -21.28185 -71.31774
vt -57.10413 -64.15793
vt -72.53419 -64.3061
vt -55.8633 -76.8149
vt -75.05401 -77.00201
vt -21.25939 -70.07649
vt -47.57341 -71.55505
vt -28.03654 -82.8379
vt -40.83023 -82.83703
vt -8.47482 -71.68461
vt -21.33199 -70.07582
vt -15.25557 -82.96581
vt -28.11278 -82.83516
vt 46.36551 -8.634219
vt 32.50681 -8.634219
vt 45.77117 0.7889941
vt 34.44285 -0.1970158
vt -64.27858 4.227554
vt -82.09255 4.738841
vt -69.06395 13.74736
vt -82.07858 13.83603
vt -14.37942 0.865707
vt -27.23735 0.8657066
vt -14.37942 10.17243
vt -27.23743 10.17243
vt -22.06716 0.8632665
vt -34.89389 0.8632278
vt -22.06817 10.16999
vt -34.82906 10.16847
vt 33.62973 35.95268
vt 6.788268 35.95272
vt 32.60755 46.55552
vt 7.102392 43.37387
vt 62.7612 1.725194
vt 45.80714 1.224978
vt 63.58961 11.03887
vt 50.56454 10.60471
vt 38.27942 -79.49466
vt 44.8138 -63.84839
vt 43.02414 -85.99852
vt 49.55883 -70.34643
vt -91.52558 10.80167
vt -90.76333 1.482346
vt -99.25956 8.566012
vt -98.4973 -0.7533128
vt 80.8073 -2.056406
vt 85.34455 7.580947
vt 88.51409 -4.368358
vt 93.0563 5.269802
vt -42.54768 -67.43147
vt -35.9606 -78.80533
vt -47.26675 -73.95396
vt -40.67967 -85.32781
vt -15.13302 31.23615
vt -13.37982 29.12925
vt -11.62662 27.02234
vt -7.053703 30.86071
vt -6.312561 29.00464
vt -5.571319 27.14854
vt -6.3125 29.00468
vt -1.815564 35.65603
vt -0.4721792 34.32301
vt 0.8712779 32.99001
vt -1.815664 35.65596
vt -0.4722778 34.32294
vt 5.672829 39.08555
vt 5.943205 35.46657
vt 0.8711705 32.98989
vt 6.213649 31.84744
vt 5.94279 35.4666
vt 5.672426 39.08558
vt 10.64119 47.062
vt 10.77626 42.59362
vt 10.91133 38.12523
vt 6.213206 31.84751
vt 11.04642 33.65687
vt 11.18154 29.18851
vt 10.91154 38.12526
vt 29.14896 42.59353
vt 29.28397 38.12515
vt 29.01394 47.0619
vt 51.18175 47.06179
vt 49.70055 42.59342
vt 49.17265 38.12505
vt 11.04666 33.6569
vt 29.41906 33.65681
vt 29.55415 24.7835
vt 49.97056 33.65672
vt 47.92652 29.18839
vt 19.69176 104.7096
vt 29.01374 104.7095
vt 40.51812 104.7094
vt -24.92117 8.446063E-05
vt -17.29373 16.14973
vt 4.346903 14.50936
vt -16.67104 -12.99349
vt -5.865927 -12.96237
vt -14.1746 3.715406
vt -11.69781 3.916785
vt 4.981021 -12.14262
vt 11.03765 -12.15426
vt -1.104817 3.6175
vt 4.951674 3.605816
vt 0.6330219 26.97694
vt -4.187121 19.73852
vt 14.64939 16.04764
vt 9.829379 10.37684
vt 0.5438354 -14.97021
vt 6.007084 -14.98471
vt -7.387268 0.9349369
vt -1.926805 0.9200557
vt 3.886259 -3.216521
vt 9.52116 -3.266248
vt -3.974699 10.97622
vt -0.1322306 11.27813
vt -22.95985 3.216057
vt -4.066775 3.208175
vt -29.02424 17.40548
vt -11.29813 16.89777
vt -53.41167 -1.7161
vt -34.51864 -1.723982
vt -59.47608 12.4733
vt -40.58305 12.46543
vt -51.39369 11.76596
vt -46.48002 11.76596
vt -53.98797 26.97735
vt -49.07438 26.97732
vt -28.8873 22.02433
vt -24.34829 22.02433
vt -27.79101 37.41637
vt -23.25201 37.41637
vt -60.77572 13.10621
vt -56.06825 13.10621
vt -62.73804 28.41195
vt -58.03056 28.41196
vt -95.59904 23.49197
vt -36.97343 23.50783
vt -94.46544 38.88125
vt -35.8398 38.89716
vt 23.07813 8.797979E-05
vt 0 15.4312
vt 23.07813 15.4312
vt 22.93709 -1.024246
vt 46.2859 -1.024246
vt 23.62553 14.3915
vt 46.96812 14.39176
vt 39.03339 8.974439
vt 61.74599 9.510127
vt 35.96096 24.09657
vt 58.67022 24.63067
vt -48.1304 17.86766
vt -43.63095 17.86766
vt -48.86212 33.28133
vt -44.36264 33.28133

vn 0 1 0
vn -0.02113701 0.9997506 0.00721029
vn -0.03578716 0.9991988 -0.002725373
vn -0.05043731 0.9986469 -0.01266104
vn -0.02168555 0.9944358 -0.1030885
vn -0.02740922 0.9945396 -0.1004996
vn -0.03313289 0.9946435 -0.09791078
vn 0 0.9998028 0.01985985
vn -0.002407569 0.9997525 0.02189439
vn -0.004815139 0.9997021 0.02392892
vn -0.000134543 0.9996855 0.0250799
vn 0.003927405 0.9997282 0.02246956
vn 0.007989353 0.9997709 0.01985922
vn -0.03365107 0.9542211 -0.2972031
vn -0.03034547 0.953017 -0.3013441
vn -0.02703986 0.9518129 -0.3054851
vn 0.002268238 0.999182 0.04037388
vn 0.001132142 0.9991001 0.04233895
vn -3.95291E-06 0.9990181 0.04430402
vn -0.005151841 0.9991373 0.04120879
vn -0.00276989 0.9991889 0.04008649
vn -0.0003879396 0.9992406 0.03896418
vn 0.3686148 -0.1567585 0.9162696
vn 0.1300295 0.1636209 0.8922889
vn -0.1085557 0.4840003 0.8683083
vn -0.9018194 -0.2103979 -0.3774315
vn -0.8794074 -0.1047881 -0.4463775
vn -0.8569953 0.0008217279 -0.5153236
vn 0.009955395 0.00162159 -0.9999492
vn 0.07176308 0.001621188 -0.9974204
vn 0.03596092 -0.047493 -0.9963715
vn 0.0001587687 -0.09660718 -0.9953226
vn -0.173207 0.4791081 0.8604968
vn -0.05897637 0.1553649 0.9223347
vn 0.0552543 -0.1683784 0.9841726
vn 0.9163898 -0.03867061 -0.3984148
vn 0.8673978 -0.1592243 -0.4501737
vn 0.8184057 -0.2797781 -0.5019326
vn -0.3250794 -0.9391794 0.1107495
vn -0.8426993 -0.05201181 -0.5358663
vn 0.8455542 0.259691 0.4664747
vn 0.2938409 0.9464449 -0.1337892
vn 0 0.9999981 0.001966343
vn -0.0007608784 0.9999981 0.001616315
vn -0.001521757 0.999998 0.001266288
vn 0 0.9999973 0.0023343
vn -0.001967329 0.9999967 0.001637059
vn 0.001342431 0.9999985 -0.001117066
vn 0.001414094 0.9999986 -0.0008552357
vn 0.001602393 0.9999982 -0.0009640686
vn -0.0020463 0.9999976 0.0008169778
vn -0.001306941 0.9999983 0.001316853
vn -0.001837984 0.9999981 0.0007336898
vn 0.001979836 0.999998 -0.0001479723
vn 0.001700599 0.9999971 -0.001714413
vn 0.002074467 0.999997 -0.0009487516
vn 0.002448335 0.999997 -0.0001830902
vn 0.009570784 0.9999539 -0.000715096
vn 0.009518472 0.9999546 -0.0004297041
vn 0.009492316 0.9999549 -0.0002870083
vn 0.01003557 0.9999495 -0.0005250087
vn 0.01011754 0.9999487 -0.0003060502
vn 0.0004268098 0.9999999 -1.302685E-05
vn 0.0006340656 0.9999998 0.0002858522
vn 0.6267126 0.4859373 -0.6091768
vn 0.69714 0.412543 -0.5765344
vn 0.7675674 0.3391486 -0.543892
vn 0.7148228 0.5351748 0.4501292
vn 0.7283344 0.5551732 0.397432
vn 0.7418461 0.5751716 0.3447349
vn 0.01942931 0.4448698 0.8953845
vn 0.5340746 0.6049928 0.5905489
vn 0.4840952 0.5736533 0.6549406
vn 0.4341159 0.5423139 0.7193323
vn -0.1845139 0.4609447 0.868035
vn -0.4684739 0.104734 0.8772475
vn -0.139809 0.3418815 0.8351899
vn 0.1888559 0.5790289 0.7931324
vn -0.2319699 -0.1024936 0.9673082
vn -0.1003711 0.1221572 0.9523622
vn 0.03122769 0.346808 0.9374161
vn 0.2319626 0.1024808 0.9673113
vn 0.8438057 0.3728218 0.3859998
vn 0.8438039 0.3728185 0.3860069
vn 0.9027324 0.3988588 -0.1612016
vn 0.8753433 0.3867543 0.2901641
vn 0.9018949 0.3984798 -0.1667315
vn 0.9146906 0.4041548 0
vn 0.9100066 0.4020852 -0.1010717
vn 0.9099964 0.4021048 -0.1010852
vn 0.8127157 0.3588964 0.4590061
vn 0.9094008 0.401805 0.1074381

usemtl Prototype_Scaling_Blue_Sapphire
f 11/11/1 4/4/1 7/7/1
f 4/4/1 11/11/1 2/2/1
f 11/11/1 10/10/1 2/2/1
f 8/8/1 6/6/1 9/9/1
f 6/6/1 8/8/1 4/4/1
f 8/8/1 7/7/1 4/4/1
f 43/97/59 44/96/58 48/100/58
f 47/99/60 43/97/59 48/100/58
f 46/98/60 43/97/59 47/99/60
f 49/102/59 45/101/61 50/103/62
f 44/96/58 45/101/61 49/102/59
f 48/100/59 44/96/58 49/102/59
f 4/4/1 2/2/1 1/1/1
f 1/1/1 3/3/1 4/4/1
f 6/6/1 4/4/1 3/3/1
f 3/3/1 5/5/1 6/6/1
f 12/14/3 1/12/2 2/13/3
f 2/13/3 13/15/4 12/14/3
f 14/18/6 1/16/5 12/17/6
f 12/17/6 15/19/7 14/18/6
f 16/22/9 3/20/8 1/21/9
f 1/21/9 17/23/10 16/22/9
f 18/26/12 5/24/11 3/25/12
f 3/25/12 16/27/13 18/26/12
f 19/30/15 14/28/14 15/29/15
f 15/29/15 20/31/16 19/30/15
f 23/34/18 21/32/17 22/33/18
f 22/33/18 24/35/19 23/34/18
f 26/38/21 25/36/20 21/37/21
f 21/37/21 23/39/22 26/38/21
f 25/43/25 18/41/24 16/40/23
f 16/40/23 21/42/24 25/43/25
f 26/47/28 27/45/27 18/44/26
f 18/44/26 25/46/27 26/47/28
f 23/51/29 28/49/29 27/48/29
f 27/48/29 26/50/29 23/51/29
f 24/55/32 29/53/31 28/52/30
f 28/52/30 23/54/31 24/55/32
f 21/59/35 16/57/34 17/56/33
f 17/56/33 22/58/34 21/59/35
f 33/63/38 31/61/37 30/60/36
f 30/60/36 32/62/37 33/63/38
f 31/67/39 17/65/39 29/64/39
f 29/64/39 30/66/39 31/67/39
f 30/71/40 29/69/40 24/68/40
f 24/68/40 32/70/40 30/71/40
f 33/75/41 22/73/41 17/72/41
f 17/72/41 31/74/41 33/75/41
f 32/79/42 24/77/42 22/76/42
f 22/76/42 33/78/42 32/79/42
f 34/80/44 11/11/43 7/7/44
f 7/7/44 35/81/45 34/80/44
f 35/81/44 7/7/46 8/8/44
f 8/8/44 36/82/47 35/81/44
f 37/83/49 34/80/48 35/81/49
f 35/81/49 38/84/49 37/83/49
f 38/84/50 35/81/48 36/82/50
f 36/82/50 39/85/50 38/84/50
f 40/87/45 37/83/51 38/86/45
f 38/86/45 41/88/52 40/87/45
f 41/88/53 38/84/53 39/85/53
f 39/85/53 42/89/52 41/88/53
f 43/92/50 40/90/48 41/91/50
f 41/91/50 44/93/54 43/92/50
f 44/93/56 41/91/55 42/94/56
f 42/94/56 45/95/57 44/93/56
f 47/99/63 48/104/63 52/106/63
f 52/106/63 51/105/63 47/99/63
f 46/98/63 47/99/63 51/105/63
f 51/105/63 53/107/63 46/98/63
f 53/107/63 51/105/63 55/109/63
f 55/109/63 54/108/63 53/107/63
f 51/105/63 52/106/63 56/110/63
f 56/110/63 55/109/63 51/105/63
f 49/111/63 50/103/63 58/113/63
f 58/113/63 57/112/63 49/111/63
f 48/104/63 49/111/63 57/112/63
f 57/112/63 52/106/63 48/104/63
f 52/106/63 57/112/63 59/114/63
f 59/114/63 56/110/63 52/106/63
f 57/112/63 58/113/63 60/115/63
f 60/115/63 59/114/63 57/112/63
f 61/116/64 46/98/63 53/107/64
f 53/107/64 62/117/64 61/116/64
f 62/117/64 53/107/63 54/108/64
f 54/108/64 63/118/64 62/117/64
f 64/120/66 8/119/65 9/9/66
f 9/9/66 65/121/67 64/120/66
f 66/124/69 36/122/68 8/123/69
f 8/123/69 64/125/70 66/124/69
f 67/128/71 39/126/71 36/127/71
f 36/127/71 66/129/71 67/128/71
f 68/132/73 42/130/72 39/131/73
f 39/131/73 67/133/74 68/132/73
f 69/136/75 45/134/75 42/135/75
f 42/135/75 68/137/75 69/136/75
f 70/140/77 50/138/76 45/139/77
f 45/139/77 69/141/78 70/140/77
f 71/144/80 58/142/79 50/143/80
f 50/143/80 70/145/81 71/144/80
f 72/148/82 60/146/82 58/147/82
f 58/147/82 71/149/82 72/148/82
f 73/152/84 59/150/83 60/151/84
f 60/151/84 72/153/84 73/152/84
f 74/156/85 56/154/85 59/155/85
f 59/155/85 73/157/85 74/156/85
f 75/160/86 54/158/86 55/159/86
f 55/159/86 76/161/86 75/160/86
f 77/164/87 63/162/87 54/163/87
f 54/163/87 75/165/87 77/164/87
f 65/167/88 9/9/88 6/166/88
f 6/166/88 78/168/88 65/167/88
f 78/171/90 6/169/89 5/170/90
f 5/170/90 79/172/90 78/171/90
f 79/175/91 5/173/91 18/174/91
f 18/174/91 80/176/91 79/175/91
f 76/179/92 55/177/92 56/178/92
f 56/178/92 74/180/92 76/179/92

